# xmcd
#
# Track frame offsets:
#	150
#	14077
#	30122
#	44175
#	60309
#	74541
#	89004
#	112591
#	130809
#	146036
#	162919
#
# Disc length: 2406 seconds
#
# Revision: 1
# Processed by: cddbd v1.5.2PL0 Copyright (c) Steve Scherf et al.
# Submitted via: audiograbber 1.83.01
#
DISCID=9609640b
DTITLE=Pat O´Bryan - Radio Free Texas
DYEAR=2003
DGENRE=Country
TTITLE0=Rollin´ tumblin´
TTITLE1=Wouldn´t change a thing
TTITLE2=Black cat bone
TTITLE3=Every now and then
TTITLE4=Mirror ball
TTITLE5=Let the girl dance
TTITLE6=Why don´t you want me ?
TTITLE7=Mystery wind
TTITLE8=Come to papa
TTITLE9=Blue avenue
TTITLE10=Southbound train
EXTD=
EXTT0=
EXTT1=
EXTT2=
EXTT3=
EXTT4=
EXTT5=
EXTT6=
EXTT7=
EXTT8=
EXTT9=
EXTT10=
PLAYORDER=
